# xmcd CD database file generated by OrangeCD 6.1
#
# Track frame offsets:
#	150
#	11847
#	24162
#	35560
#	45225
#	56035
#	69165
#	77342
#	88680
#	98647
#	113679
#	126354
#	135295
#	148920
#	163902
#	175325
#	186784
#	198875
#	209542
#	222672
#	234070
#	250122
#	261470
#	275400
#	291177
#
# Disc length: 4105 seconds
#
# Revision: 0
# Processed by: cddbd v1.5.2PL0 Copyright (c) Steve Scherf et al.
# Submitted via: OrangeCD 6.1
#
DISCID=64100719
DTITLE=Rafko Irgolic - Rafko Irgolic
DYEAR=1900
DGENRE=
TTITLE0=Moj crni konj
TTITLE1=Ko sem bil se decek
TTITLE2=Rio Grande
TTITLE3=Jaham spet v Kolorado
TTITLE4=Slovo v pristaniscu
TTITLE5=Pismo mojemu srcu
TTITLE6=Kavbojeva ljubica
TTITLE7=Moja puska, moj poni in jaz
TTITLE8=Diksi za nocoj
TTITLE9=Sivi zidovi starega mesta
TTITLE10=To je moj drugi dom
TTITLE11=Hitro, hitro mine cas
TTITLE12=Pred mano je poletje
TTITLE13=Gozdna vila
TTITLE14=Carmen
TTITLE15=Cez zelena polja iz otrostva
TTITLE16=Kje je dezela
TTITLE17=Na Kranjskem je lepo
TTITLE18=Letijo ptice
TTITLE19=Tvoj sem
TTITLE20=Dober dan sonce
TTITLE21=Cemu naj se zivim
TTITLE22=Vecer v planinah
TTITLE23=Ko bom sam ostal
TTITLE24=Domovina
EXTD=
EXTT0=
EXTT1=
EXTT2=
EXTT3=
EXTT4=
EXTT5=
EXTT6=
EXTT7=
EXTT8=
EXTT9=
EXTT10=
EXTT11=
EXTT12=
EXTT13=
EXTT14=
EXTT15=
EXTT16=
EXTT17=
EXTT18=
EXTT19=
EXTT20=
EXTT21=
EXTT22=
EXTT23=
EXTT24=
PLAYORDER=
